<?xml version="1.0" encoding="UTF-8" standalone="no"?><!DOCTYPE svg PUBLIC "-//W3C//DTD SVG 1.1//EN" "http://www.w3.org/Graphics/SVG/1.1/DTD/svg11.dtd"><svg width="100%" height="100%" viewBox="0 0 36 16" version="1.1" xmlns="http://www.w3.org/2000/svg" xmlns:xlink="http://www.w3.org/1999/xlink" xml:space="preserve" xmlns:serif="http://www.serif.com/" style="fill-rule:evenodd;clip-rule:evenodd;stroke-linejoin:round;stroke-miterlimit:2;"><rect id="Artboard1" x="0" y="0" width="36" height="15.36" style="fill:none;"/><clipPath id="_clip1"><rect x="0" y="0" width="36" height="15.36"/></clipPath><g clip-path="url(#_clip1)"><g><g><g><path d="M23.164,7.189l-1.369,0.791c-0.048,0.028 -0.107,0.028 -0.156,0l-1.369,-0.791c-0.048,-0.027 -0.077,-0.079 -0.077,-0.134l0,-1.581c0,-0.056 0.029,-0.107 0.077,-0.135l1.369,-0.79c0.049,-0.028 0.108,-0.028 0.156,0l1.369,0.79c0.048,0.028 0.078,0.079 0.078,0.135l0,1.581c0,0.055 -0.03,0.107 -0.078,0.134m-1.684,-3.216l-1.629,0.941c-0.146,0.085 -0.236,0.241 -0.236,0.41l0,1.881c0,0.169 0.09,0.325 0.236,0.41l1.629,0.94c0.147,0.085 0.327,0.085 0.474,0l1.629,-0.94c0.146,-0.085 0.236,-0.241 0.236,-0.41l0,-1.881c0,-0.169 -0.09,-0.325 -0.236,-0.41l-1.629,-0.941c-0.147,-0.084 -0.327,-0.084 -0.474,0" style="fill:#77bbb9;fill-rule:nonzero;"/><path d="M18.307,7.188l-1.373,0.793c-0.047,0.027 -0.104,0.027 -0.151,0l-1.373,-0.793c-0.047,-0.027 -0.076,-0.077 -0.076,-0.131l0,-1.585c0,-0.054 0.029,-0.104 0.076,-0.131l1.373,-0.793c0.047,-0.027 0.104,-0.027 0.151,0l1.373,0.793c0.047,0.027 0.076,0.077 0.076,0.131l0,1.585c0,0.054 -0.029,0.104 -0.076,0.131m-1.658,-3.23l-1.683,0.971c-0.13,0.075 -0.21,0.214 -0.21,0.364l0,3.508c0,0.15 0.08,0.289 0.21,0.364l0.368,0.212l0,-1.565l1.315,0.759c0.13,0.075 0.289,0.075 0.419,0l1.683,-0.972c0.13,-0.075 0.21,-0.213 0.21,-0.363l0,-1.943c0,-0.15 -0.08,-0.289 -0.21,-0.364l-1.683,-0.971c-0.13,-0.075 -0.289,-0.075 -0.419,0" style="fill:#77bbb9;fill-rule:nonzero;"/><path d="M25.051,3.837l-0.355,0.205c-0.138,0.079 -0.223,0.226 -0.223,0.386l0,3.673c0,0.159 0.085,0.306 0.223,0.386l0.355,0.205l0,-4.855Z" style="fill:#77bbb9;fill-rule:nonzero;"/><path d="M26.283,3.837l-0.355,0.205c-0.138,0.079 -0.223,0.226 -0.223,0.386l0,3.673c0,0.159 0.085,0.306 0.223,0.386l0.355,0.205l0,-4.855Z" style="fill:#77bbb9;fill-rule:nonzero;"/><path d="M30.928,4.928l-1.676,-0.968c-0.132,-0.076 -0.294,-0.076 -0.426,0l-1.676,0.968c-0.132,0.076 -0.213,0.216 -0.213,0.369l0,1.935c0,0.152 0.081,0.293 0.213,0.369l1.889,1.091l0,-0.422c0,-0.152 -0.081,-0.292 -0.213,-0.368l-1.23,-0.711c-0.051,-0.029 -0.081,-0.082 -0.081,-0.14l0,-1.573c0,-0.058 0.03,-0.112 0.081,-0.141l1.362,-0.786c0.05,-0.029 0.112,-0.029 0.162,0l1.362,0.786c0.051,0.029 0.082,0.083 0.082,0.141l0,0.497l-1.146,0c-0.208,0 -0.377,0.17 -0.377,0.378l0,0.2l2.1,0l0,-1.256c0,-0.153 -0.081,-0.293 -0.213,-0.369" style="fill:#77bbb9;fill-rule:nonzero;"/><path d="M35.724,4.911l-1.603,-0.926c-0.138,-0.08 -0.309,-0.08 -0.447,0l-1.301,0.751l0,-0.514l-0.337,0.195c-0.149,0.086 -0.241,0.245 -0.241,0.417l0,3.267c0,0.159 0.085,0.306 0.223,0.386l0.355,0.205l0,-3.195c0,-0.058 0.031,-0.111 0.081,-0.14l1.363,-0.787c0.05,-0.029 0.112,-0.029 0.162,0l1.362,0.787c0.05,0.029 0.081,0.082 0.081,0.14l0,3.195l0.355,-0.205c0.138,-0.08 0.223,-0.227 0.223,-0.386l0,-2.712c0,-0.198 -0.105,-0.38 -0.276,-0.478" style="fill:#77bbb9;fill-rule:nonzero;"/></g><g><path d="M17.099,11.494l-0.302,0l0,-1.371l0.302,0l0,0.314c0.071,-0.244 0.206,-0.344 0.376,-0.344c0.097,0 0.2,0.024 0.244,0.053l-0.05,0.279c-0.076,-0.038 -0.144,-0.047 -0.203,-0.047c-0.258,0 -0.367,0.259 -0.367,0.623l0,0.493Z" style="fill:#77bbb9;fill-rule:nonzero;"/><path d="M20.04,10.804c0,-0.252 -0.188,-0.414 -0.417,-0.414c-0.226,0 -0.414,0.162 -0.414,0.414c0,0.258 0.188,0.426 0.414,0.426c0.229,0 0.417,-0.168 0.417,-0.426m-1.13,0c0,-0.435 0.326,-0.71 0.713,-0.71c0.391,0 0.72,0.275 0.72,0.71c0,0.434 -0.329,0.719 -0.72,0.719c-0.387,0 -0.713,-0.285 -0.713,-0.719" style="fill:#77bbb9;fill-rule:nonzero;"/><path d="M22.259,11.23c0.229,0 0.414,-0.174 0.414,-0.426c0,-0.252 -0.185,-0.417 -0.414,-0.417c-0.206,0 -0.42,0.147 -0.42,0.417c0,0.267 0.197,0.426 0.42,0.426m-0.725,0.264l0,-2.117l0.302,0l0,0.943c0.085,-0.15 0.267,-0.227 0.461,-0.227c0.373,0 0.684,0.276 0.684,0.717c0,0.431 -0.317,0.713 -0.687,0.713c-0.185,0 -0.373,-0.082 -0.458,-0.229l0,0.2l-0.302,0Z" style="fill:#77bbb9;fill-rule:nonzero;"/><path d="M25.302,10.804c0,-0.252 -0.188,-0.414 -0.417,-0.414c-0.226,0 -0.414,0.162 -0.414,0.414c0,0.258 0.188,0.426 0.414,0.426c0.229,0 0.417,-0.168 0.417,-0.426m-1.13,0c0,-0.435 0.326,-0.71 0.713,-0.71c0.391,0 0.72,0.275 0.72,0.71c0,0.434 -0.329,0.719 -0.72,0.719c-0.387,0 -0.713,-0.285 -0.713,-0.719" style="fill:#77bbb9;fill-rule:nonzero;"/><path d="M27.345,10.123l0.29,0l0,0.249l-0.29,0l0,1.122l-0.303,0l0,-1.122l-0.246,0l0,-0.249l0.246,0l0,-0.52l0.303,0l0,0.52Z" style="fill:#77bbb9;fill-rule:nonzero;"/><path d="M29.179,10.123l-0.3,0l0,1.371l0.3,0l0,-1.371Zm-0.15,-0.746c0.111,0 0.199,0.082 0.199,0.191c0,0.109 -0.088,0.191 -0.199,0.191c-0.109,0 -0.203,-0.082 -0.203,-0.191c0,-0.109 0.094,-0.191 0.203,-0.191" style="fill:#77bbb9;fill-rule:nonzero;"/><path d="M31.15,10.094c0.218,0 0.414,0.085 0.543,0.237l-0.234,0.188c-0.074,-0.085 -0.188,-0.132 -0.309,-0.132c-0.229,0 -0.431,0.162 -0.431,0.417c0,0.255 0.202,0.429 0.431,0.429c0.121,0 0.235,-0.05 0.309,-0.135l0.237,0.184c-0.129,0.153 -0.325,0.241 -0.546,0.241c-0.393,0 -0.73,-0.285 -0.73,-0.719c0,-0.435 0.337,-0.71 0.73,-0.71" style="fill:#77bbb9;fill-rule:nonzero;"/><path d="M32.926,10.455c0.017,-0.203 0.238,-0.361 0.49,-0.361c0.244,0 0.481,0.111 0.499,0.405l-0.288,0c-0.011,-0.103 -0.105,-0.147 -0.199,-0.147c-0.077,0 -0.165,0.029 -0.194,0.076c-0.024,0.038 -0.026,0.082 -0.012,0.124c0.018,0.052 0.094,0.085 0.168,0.105l0.211,0.053c0.296,0.073 0.358,0.261 0.358,0.399c0,0.265 -0.232,0.414 -0.546,0.414c-0.255,0 -0.519,-0.161 -0.525,-0.449l0.278,0c0.015,0.117 0.112,0.197 0.271,0.197c0.138,0 0.243,-0.062 0.243,-0.165c0,-0.088 -0.091,-0.138 -0.191,-0.161l-0.185,-0.044c-0.29,-0.079 -0.396,-0.226 -0.378,-0.446" style="fill:#77bbb9;fill-rule:nonzero;"/></g></g><g><g><g><g><g><path d="M10.791,10.086l-8.305,0l4.153,-7.164l4.152,7.164Z" style="fill:#77bbb9;fill-rule:nonzero;"/><path d="M10.791,10.686c0.215,0 0.413,-0.114 0.52,-0.3c0.107,-0.186 0.107,-0.415 0,-0.6l-4.153,-7.165c-0.107,-0.185 -0.305,-0.299 -0.519,-0.299c-0.214,0 -0.412,0.114 -0.519,0.299l-4.153,7.165c-0.108,0.185 -0.108,0.414 -0.001,0.6c0.107,0.186 0.305,0.3 0.52,0.3l8.305,0Zm0,-0.6l-8.305,0l4.153,-7.164l4.152,7.164Z" style="fill:#77bbb9;"/><path d="M2.486,10.086l4.153,5.26l4.152,-5.26l-8.305,0Z" style="fill:#6080be;fill-rule:nonzero;"/><path d="M0,11.513l6.639,3.833l-4.153,-5.26l-2.486,1.427Z" style="fill:#f1887f;fill-rule:nonzero;"/><path d="M6.639,15.346l6.638,-3.833l-2.485,-1.427l-4.153,5.26Z" style="fill:#396581;fill-rule:nonzero;"/><path d="M10.792,10.086l2.485,1.427l0,-7.666l-2.485,6.239Z" style="fill:#fdd689;fill-rule:nonzero;"/><path d="M0,11.513l2.486,-1.427l-2.486,-6.239l0,7.666Z" style="fill:#396581;fill-rule:nonzero;"/><path d="M6.639,0.014l-6.639,3.833l6.639,-0.925l0,-2.908Z" style="fill:#6080be;fill-rule:nonzero;"/><path d="M6.639,0.014l0,2.908l6.638,0.925l-6.638,-3.833Z" style="fill:#396581;fill-rule:nonzero;"/><path d="M0,3.847l2.486,6.239l4.153,-7.164l-6.639,0.925Z" style="fill:#fdd689;fill-rule:nonzero;"/><path d="M10.792,10.086l2.485,-6.239l-6.638,-0.925l4.153,7.164Z" style="fill:#f1887f;fill-rule:nonzero;"/></g></g></g></g></g></g></g></svg>