<?xml version="1.0" encoding="UTF-8" standalone="no"?>
<!DOCTYPE svg PUBLIC "-//W3C//DTD SVG 1.1//EN" "http://www.w3.org/Graphics/SVG/1.1/DTD/svg11.dtd">
<svg width="100%" height="100%" viewBox="0 0 755 845" version="1.1" xmlns="http://www.w3.org/2000/svg" xmlns:xlink="http://www.w3.org/1999/xlink" xml:space="preserve" xmlns:serif="http://www.serif.com/" style="fill-rule:evenodd;clip-rule:evenodd;stroke-linejoin:round;stroke-miterlimit:2;">
    <g transform="matrix(1,0,0,1,0,-991.799)">
        <g id="Artboard1" transform="matrix(0.38987,0,0,0.484237,0,524.944)">
            <rect x="0" y="964.103" width="1934.32" height="1743" style="fill:none;"/>
            <g transform="matrix(2.56496,0,0,2.0651,0,964.103)">
                <g transform="matrix(1.97062,0,0,1.97062,-128.15,-79.7889)">
                    <g transform="matrix(1,0,0,1,156.189,60.0781)">
                        <path d="M0,56.094L36.382,147.406L97.158,42.549L0,56.094Z" style="fill:rgb(253,214,137);fill-rule:nonzero;"/>
                    </g>
                    <g transform="matrix(1,0,0,1,156.189,60.0781)">
                        <path d="M97.158,0L0,56.094L97.158,42.549L97.158,0Z" style="fill:rgb(96,128,190);fill-rule:nonzero;"/>
                    </g>
                    <g transform="matrix(1,0,0,1,156.189,60.0781)">
                        <path d="M0,168.282L97.158,224.375L36.382,147.406L0,168.282Z" style="fill:rgb(241,136,127);fill-rule:nonzero;"/>
                    </g>
                    <g transform="matrix(1,0,0,1,156.189,60.0781)">
                        <path d="M0,168.282L36.382,147.406L0,56.094L0,168.282Z" style="fill:rgb(57,101,129);fill-rule:nonzero;"/>
                    </g>
                    <g transform="matrix(1,0,0,1,156.189,60.0781)">
                        <path d="M97.157,42.548L36.382,147.407L157.932,147.407L97.157,42.548Z" style="fill:rgb(119,187,185);fill-rule:nonzero;"/>
                    </g>
                    <g transform="matrix(1,0,0,1,156.189,60.0781)">
                        <path d="M157.933,147.406L194.315,56.094L97.158,42.549L157.933,147.406Z" style="fill:rgb(241,136,127);fill-rule:nonzero;"/>
                    </g>
                    <g transform="matrix(1,0,0,1,156.189,60.0781)">
                        <path d="M97.158,0L97.158,42.549L194.315,56.094L97.158,0Z" style="fill:rgb(57,101,129);fill-rule:nonzero;"/>
                    </g>
                    <g transform="matrix(1,0,0,1,156.189,60.0781)">
                        <path d="M36.382,147.406L97.158,224.375L157.933,147.406L36.382,147.406Z" style="fill:rgb(96,128,190);fill-rule:nonzero;"/>
                    </g>
                    <g transform="matrix(1,0,0,1,156.189,60.0781)">
                        <path d="M97.158,224.375L194.315,168.282L157.933,147.406L97.158,224.375Z" style="fill:rgb(57,101,129);fill-rule:nonzero;"/>
                    </g>
                    <g transform="matrix(1,0,0,1,156.189,60.0781)">
                        <path d="M157.933,147.406L194.315,168.282L194.315,56.094L157.933,147.406Z" style="fill:rgb(253,214,137);fill-rule:nonzero;"/>
                    </g>
                </g>
                <g transform="matrix(1,0,0,1,-22.2088,-28.6853)">
                    <g transform="matrix(1.48468,0,0,1.48468,-699.035,132.018)">
                        <g transform="matrix(106.861,0,0,106.861,507.009,374.221)">
                            <path d="M0.39,-0.7C0.453,-0.7 0.508,-0.69 0.555,-0.669C0.602,-0.648 0.638,-0.618 0.663,-0.579C0.688,-0.54 0.701,-0.494 0.701,-0.441C0.701,-0.388 0.688,-0.343 0.663,-0.304C0.638,-0.265 0.602,-0.236 0.555,-0.215C0.508,-0.194 0.453,-0.183 0.39,-0.183L0.268,-0.183L0.268,0L0.07,0L0.07,-0.7L0.39,-0.7ZM0.378,-0.339C0.419,-0.339 0.449,-0.348 0.47,-0.366C0.491,-0.383 0.501,-0.408 0.501,-0.441C0.501,-0.474 0.491,-0.499 0.47,-0.517C0.449,-0.535 0.419,-0.544 0.378,-0.544L0.268,-0.544L0.268,-0.339L0.378,-0.339Z" style="fill-rule:nonzero;"/>
                        </g>
                        <g transform="matrix(106.861,0,0,106.861,585.766,374.221)">
                            <path d="M0.423,0.014C0.349,0.014 0.283,-0.002 0.224,-0.033C0.165,-0.064 0.118,-0.108 0.085,-0.163C0.051,-0.218 0.034,-0.281 0.034,-0.35C0.034,-0.419 0.051,-0.482 0.085,-0.537C0.118,-0.592 0.165,-0.636 0.224,-0.667C0.283,-0.698 0.349,-0.714 0.423,-0.714C0.497,-0.714 0.564,-0.698 0.623,-0.667C0.682,-0.636 0.728,-0.592 0.762,-0.537C0.795,-0.482 0.812,-0.419 0.812,-0.35C0.812,-0.281 0.795,-0.218 0.762,-0.163C0.728,-0.108 0.682,-0.064 0.623,-0.033C0.564,-0.002 0.497,0.014 0.423,0.014ZM0.423,-0.15C0.458,-0.15 0.49,-0.158 0.519,-0.175C0.548,-0.192 0.57,-0.215 0.587,-0.246C0.604,-0.276 0.612,-0.311 0.612,-0.35C0.612,-0.389 0.604,-0.424 0.587,-0.455C0.57,-0.485 0.548,-0.508 0.519,-0.525C0.49,-0.542 0.458,-0.55 0.423,-0.55C0.388,-0.55 0.356,-0.542 0.327,-0.525C0.298,-0.508 0.276,-0.485 0.259,-0.455C0.242,-0.424 0.234,-0.389 0.234,-0.35C0.234,-0.311 0.242,-0.276 0.259,-0.246C0.276,-0.215 0.298,-0.192 0.327,-0.175C0.356,-0.158 0.388,-0.15 0.423,-0.15Z" style="fill-rule:nonzero;"/>
                        </g>
                        <g transform="matrix(106.861,0,0,106.861,676.17,374.221)">
                            <path d="M0.07,-0.7L0.268,-0.7L0.268,-0.157L0.602,-0.157L0.602,0L0.07,0L0.07,-0.7Z" style="fill-rule:nonzero;"/>
                        </g>
                        <g transform="matrix(106.861,0,0,106.861,741.356,374.221)">
                            <path d="M0.07,-0.7L0.268,-0.7L0.268,-0.157L0.602,-0.157L0.602,0L0.07,0L0.07,-0.7Z" style="fill-rule:nonzero;"/>
                        </g>
                        <g transform="matrix(106.861,0,0,106.861,806.541,374.221)">
                            <path d="M0.632,-0.153L0.632,0L0.07,0L0.07,-0.7L0.619,-0.7L0.619,-0.547L0.266,-0.547L0.266,-0.429L0.577,-0.429L0.577,-0.281L0.266,-0.281L0.266,-0.153L0.632,-0.153Z" style="fill-rule:nonzero;"/>
                        </g>
                        <g transform="matrix(106.861,0,0,106.861,878.352,374.221)">
                            <path d="M0.736,-0.7L0.736,0L0.573,0L0.264,-0.373L0.264,0L0.07,0L0.07,-0.7L0.233,-0.7L0.542,-0.327L0.542,-0.7L0.736,-0.7Z" style="fill-rule:nonzero;"/>
                        </g>
                    </g>
                    <g transform="matrix(1.20408,0,0,1.20408,-562.136,356.688)">
                        <g transform="matrix(106.861,0,0,106.861,507.009,374.221)">
                            <path d="M0.62,0L0.447,-0.241C0.424,-0.237 0.399,-0.235 0.371,-0.235L0.162,-0.235L0.162,0L0.128,0L0.128,-0.7L0.371,-0.7C0.458,-0.7 0.527,-0.68 0.576,-0.639C0.624,-0.598 0.649,-0.541 0.649,-0.468C0.649,-0.412 0.635,-0.365 0.606,-0.328C0.577,-0.29 0.535,-0.264 0.481,-0.249L0.66,0L0.62,0ZM0.373,-0.266C0.451,-0.266 0.511,-0.284 0.553,-0.319C0.595,-0.354 0.616,-0.403 0.616,-0.468C0.616,-0.532 0.595,-0.582 0.553,-0.617C0.511,-0.652 0.451,-0.669 0.373,-0.669L0.162,-0.669L0.162,-0.266L0.373,-0.266Z" style="fill-rule:nonzero;"/>
                        </g>
                        <g transform="matrix(106.861,0,0,106.861,583.735,374.221)">
                            <path d="M0.418,0.004C0.35,0.004 0.289,-0.011 0.234,-0.042C0.179,-0.073 0.135,-0.115 0.104,-0.169C0.073,-0.223 0.057,-0.283 0.057,-0.35C0.057,-0.417 0.073,-0.477 0.104,-0.531C0.135,-0.585 0.179,-0.627 0.234,-0.658C0.289,-0.689 0.35,-0.704 0.418,-0.704C0.486,-0.704 0.548,-0.689 0.603,-0.658C0.658,-0.627 0.702,-0.585 0.733,-0.531C0.764,-0.477 0.78,-0.417 0.78,-0.35C0.78,-0.283 0.764,-0.223 0.733,-0.169C0.702,-0.115 0.658,-0.073 0.603,-0.042C0.548,-0.011 0.486,0.004 0.418,0.004ZM0.418,-0.027C0.479,-0.027 0.535,-0.041 0.585,-0.069C0.635,-0.097 0.674,-0.136 0.703,-0.185C0.732,-0.234 0.746,-0.289 0.746,-0.35C0.746,-0.411 0.732,-0.466 0.703,-0.515C0.674,-0.564 0.635,-0.603 0.585,-0.631C0.535,-0.659 0.479,-0.673 0.418,-0.673C0.357,-0.673 0.301,-0.659 0.252,-0.631C0.202,-0.603 0.163,-0.564 0.134,-0.515C0.105,-0.466 0.091,-0.411 0.091,-0.35C0.091,-0.289 0.105,-0.234 0.134,-0.185C0.163,-0.136 0.202,-0.097 0.252,-0.069C0.301,-0.041 0.357,-0.027 0.418,-0.027Z" style="fill-rule:nonzero;"/>
                        </g>
                        <g transform="matrix(106.861,0,0,106.861,673.178,374.221)">
                            <path d="M0.521,-0.36C0.576,-0.351 0.617,-0.332 0.645,-0.303C0.673,-0.273 0.687,-0.233 0.687,-0.184C0.687,-0.124 0.666,-0.078 0.623,-0.047C0.58,-0.016 0.517,0 0.432,0L0.128,0L0.128,-0.7L0.412,-0.7C0.486,-0.7 0.544,-0.685 0.586,-0.654C0.628,-0.623 0.649,-0.579 0.649,-0.522C0.649,-0.48 0.638,-0.445 0.615,-0.418C0.592,-0.391 0.561,-0.371 0.521,-0.36ZM0.162,-0.67L0.162,-0.37L0.413,-0.37C0.478,-0.37 0.528,-0.383 0.563,-0.409C0.598,-0.434 0.616,-0.471 0.616,-0.52C0.616,-0.569 0.598,-0.606 0.563,-0.632C0.528,-0.657 0.478,-0.67 0.413,-0.67L0.162,-0.67ZM0.434,-0.03C0.507,-0.03 0.561,-0.043 0.598,-0.068C0.635,-0.093 0.653,-0.132 0.653,-0.185C0.653,-0.238 0.635,-0.278 0.598,-0.303C0.561,-0.328 0.507,-0.341 0.434,-0.341L0.162,-0.341L0.162,-0.03L0.434,-0.03Z" style="fill-rule:nonzero;"/>
                        </g>
                        <g transform="matrix(106.861,0,0,106.861,753.324,374.221)">
                            <path d="M0.418,0.004C0.35,0.004 0.289,-0.011 0.234,-0.042C0.179,-0.073 0.135,-0.115 0.104,-0.169C0.073,-0.223 0.057,-0.283 0.057,-0.35C0.057,-0.417 0.073,-0.477 0.104,-0.531C0.135,-0.585 0.179,-0.627 0.234,-0.658C0.289,-0.689 0.35,-0.704 0.418,-0.704C0.486,-0.704 0.548,-0.689 0.603,-0.658C0.658,-0.627 0.702,-0.585 0.733,-0.531C0.764,-0.477 0.78,-0.417 0.78,-0.35C0.78,-0.283 0.764,-0.223 0.733,-0.169C0.702,-0.115 0.658,-0.073 0.603,-0.042C0.548,-0.011 0.486,0.004 0.418,0.004ZM0.418,-0.027C0.479,-0.027 0.535,-0.041 0.585,-0.069C0.635,-0.097 0.674,-0.136 0.703,-0.185C0.732,-0.234 0.746,-0.289 0.746,-0.35C0.746,-0.411 0.732,-0.466 0.703,-0.515C0.674,-0.564 0.635,-0.603 0.585,-0.631C0.535,-0.659 0.479,-0.673 0.418,-0.673C0.357,-0.673 0.301,-0.659 0.252,-0.631C0.202,-0.603 0.163,-0.564 0.134,-0.515C0.105,-0.466 0.091,-0.411 0.091,-0.35C0.091,-0.289 0.105,-0.234 0.134,-0.185C0.163,-0.136 0.202,-0.097 0.252,-0.069C0.301,-0.041 0.357,-0.027 0.418,-0.027Z" style="fill-rule:nonzero;"/>
                        </g>
                        <g transform="matrix(106.861,0,0,106.861,841.699,374.221)">
                            <path d="M0.261,-0.669L0.004,-0.669L0.004,-0.7L0.551,-0.7L0.551,-0.669L0.294,-0.669L0.294,0L0.261,0L0.261,-0.669Z" style="fill-rule:nonzero;"/>
                        </g>
                        <g transform="matrix(106.861,0,0,106.861,901.007,374.221)">
                            <rect x="0.128" y="-0.7" width="0.034" height="0.7" style="fill-rule:nonzero;"/>
                        </g>
                        <g transform="matrix(106.861,0,0,106.861,931.996,374.221)">
                            <path d="M0.418,0.004C0.35,0.004 0.289,-0.011 0.234,-0.042C0.179,-0.073 0.135,-0.115 0.104,-0.169C0.073,-0.223 0.057,-0.283 0.057,-0.35C0.057,-0.417 0.073,-0.477 0.104,-0.531C0.135,-0.585 0.179,-0.627 0.234,-0.658C0.289,-0.689 0.35,-0.704 0.418,-0.704C0.466,-0.704 0.511,-0.696 0.553,-0.681C0.595,-0.665 0.631,-0.642 0.661,-0.611L0.64,-0.589C0.582,-0.645 0.508,-0.673 0.419,-0.673C0.358,-0.673 0.302,-0.659 0.252,-0.631C0.202,-0.602 0.163,-0.563 0.134,-0.514C0.105,-0.465 0.091,-0.41 0.091,-0.35C0.091,-0.29 0.105,-0.235 0.134,-0.186C0.163,-0.137 0.202,-0.098 0.252,-0.07C0.302,-0.041 0.358,-0.027 0.419,-0.027C0.508,-0.027 0.581,-0.055 0.64,-0.112L0.661,-0.09C0.631,-0.059 0.595,-0.036 0.554,-0.02C0.512,-0.004 0.467,0.004 0.418,0.004Z" style="fill-rule:nonzero;"/>
                        </g>
                        <g transform="matrix(106.861,0,0,106.861,1007.65,374.221)">
                            <path d="M0.305,0.004C0.254,0.004 0.206,-0.005 0.161,-0.023C0.115,-0.041 0.08,-0.064 0.055,-0.093L0.073,-0.117C0.096,-0.09 0.129,-0.069 0.171,-0.052C0.212,-0.035 0.257,-0.026 0.304,-0.026C0.374,-0.026 0.427,-0.04 0.463,-0.068C0.498,-0.095 0.516,-0.131 0.516,-0.174C0.516,-0.207 0.507,-0.234 0.488,-0.255C0.469,-0.275 0.446,-0.29 0.419,-0.301C0.392,-0.311 0.354,-0.322 0.307,-0.333C0.256,-0.346 0.216,-0.358 0.185,-0.37C0.154,-0.382 0.128,-0.4 0.107,-0.425C0.086,-0.45 0.075,-0.483 0.075,-0.524C0.075,-0.557 0.084,-0.587 0.101,-0.614C0.118,-0.641 0.145,-0.663 0.181,-0.68C0.216,-0.696 0.261,-0.704 0.314,-0.704C0.352,-0.704 0.389,-0.698 0.427,-0.687C0.463,-0.676 0.495,-0.66 0.521,-0.64L0.506,-0.613C0.479,-0.633 0.448,-0.648 0.415,-0.659C0.381,-0.669 0.348,-0.674 0.315,-0.674C0.247,-0.674 0.196,-0.66 0.161,-0.632C0.126,-0.603 0.108,-0.567 0.108,-0.524C0.108,-0.49 0.118,-0.463 0.137,-0.443C0.156,-0.422 0.179,-0.407 0.207,-0.396C0.234,-0.385 0.271,-0.374 0.318,-0.363C0.369,-0.35 0.409,-0.338 0.44,-0.327C0.471,-0.315 0.497,-0.297 0.518,-0.273C0.539,-0.248 0.549,-0.216 0.549,-0.175C0.549,-0.142 0.54,-0.112 0.523,-0.085C0.505,-0.058 0.478,-0.036 0.441,-0.02C0.404,-0.004 0.359,0.004 0.305,0.004Z" style="fill-rule:nonzero;"/>
                        </g>
                    </g>
                </g>
            </g>
        </g>
    </g>
</svg>
