<?xml version="1.0" encoding="UTF-8" standalone="no"?><!DOCTYPE svg PUBLIC "-//W3C//DTD SVG 1.1//EN" "http://www.w3.org/Graphics/SVG/1.1/DTD/svg11.dtd"><svg width="100%" height="100%" viewBox="0 0 7630 1358" version="1.1" xmlns="http://www.w3.org/2000/svg" xmlns:xlink="http://www.w3.org/1999/xlink" xml:space="preserve" xmlns:serif="http://www.serif.com/" style="fill-rule:evenodd;clip-rule:evenodd;stroke-linejoin:round;stroke-miterlimit:2;"><rect id="long" x="0" y="0" width="7629.34" height="1357.98" style="fill:none;"/><g><path d="M0.002,397.412l182.63,458.37l305.085,-526.363l-487.715,67.993Z" style="fill:#fdd689;fill-rule:nonzero;"/><path d="M487.715,115.829l-487.715,281.582l487.715,-67.994l0,-213.588Z" style="fill:#6080be;fill-rule:nonzero;"/><path d="M0.002,960.574l487.715,281.577l-305.085,-386.371l-182.63,104.794Z" style="fill:#f1887f;fill-rule:nonzero;"/><path d="M0.002,960.574l182.63,-104.794l-182.63,-458.369l0,563.163Z" style="fill:#396581;fill-rule:nonzero;"/><path d="M487.713,329.417l-305.079,526.368l610.159,0l-305.08,-526.368Z" style="fill:#77bbb9;fill-rule:nonzero;"/><path d="M792.796,855.783l182.631,-458.37l-487.711,-67.993l305.08,526.363Z" style="fill:#f1887f;fill-rule:nonzero;"/><path d="M487.715,115.829l0,213.588l487.711,67.994l-487.711,-281.582Z" style="fill:#396581;fill-rule:nonzero;"/><path d="M182.63,855.783l305.085,386.37l305.079,-386.37l-610.164,0Z" style="fill:#6080be;fill-rule:nonzero;"/><path d="M487.715,1242.15l487.711,-281.577l-182.631,-104.794l-305.08,386.371Z" style="fill:#396581;fill-rule:nonzero;"/><path d="M792.796,855.783l182.631,104.794l0,-563.164l-182.631,458.37Z" style="fill:#fdd689;fill-rule:nonzero;"/></g><g transform="matrix(6.18615,0,0,6.18615,-1962.88,-1404.63)"><text x="507.009px" y="374.221px" style="font-family:'Montserrat-ExtraBold', 'Montserrat';font-weight:800;font-size:106.861px;">POLLE</text><text x="878.352px" y="374.221px" style="font-family:'Montserrat-ExtraBold', 'Montserrat';font-weight:800;font-size:106.861px;">N</text></g><text x="4117.07px" y="910.362px" style="font-family:'Montserrat-ExtraLight', 'Montserrat';font-weight:275;font-size:661.06px;">ROBO<tspan x="6187.51px " y="910.362px ">T</tspan>IC<tspan x="7214.14px " y="910.362px ">S</tspan></text></svg>